G04 ================== begin FILE IDENTIFICATION RECORD ==================*
G04 Layout Name:  C:/USERS/USER/DESKTOP/WORKSPACE/OSCILLATOR/allegro/OSCILLATOR.brd*
G04 Film Name:    BOTTOM*
G04 File Format:  Gerber RS274X*
G04 File Origin:  Cadence Allegro 17.2-P019*
G04 Origin Date:  Thu Aug 01 11:30:37 2019*
G04 *
G04 Layer:  ETCH/BOTTOM*
G04 Layer:  PIN/BOTTOM*
G04 Layer:  VIA CLASS/BOTTOM*
G04 *
G04 Offset:    (0.000 0.000)*
G04 Mirror:    No*
G04 Mode:      Positive*
G04 Rotation:  0*
G04 FullContactRelief:  No*
G04 UndefLineWidth:     0.000*
G04 ================== end FILE IDENTIFICATION RECORD ====================*
%FSLAX25Y25*MOMM*%
%IR0*IPPOS*OFA0.00000B0.00000*MIA0B0*SFA1.00000B1.00000*%
%ADD11C,1.524*%
%ADD12C,1.651*%
%ADD15C,1.905*%
%ADD13R,1.524X1.524*%
%ADD14R,1.905X1.905*%
%ADD10C,.635*%
%ADD16C,1.*%
%ADD17C,.5*%
%ADD18C,2.036*%
%ADD20C,2.164*%
%ADD19C,2.418*%
G75*
%LPD*%
G75*
G36*
G01X1678000Y1473400D02*
X1828600Y1624000D01*
Y1682400D01*
G03X1727400I-50600J95600D01*
G01Y1666000D01*
X1636000Y1574600D01*
X656000D01*
X550600Y1680000D01*
Y3403700D01*
G03X500000Y3593800I-50600J88316D01*
G01Y3644200D01*
G03Y3847800I0J101800D01*
G01Y3898200D01*
G03X588300Y3949400I0J101742D01*
G01X678000D01*
X774900Y3852500D01*
Y2963500D01*
X931500Y2806900D01*
X1630000D01*
X1727400Y2709500D01*
Y2635600D01*
G03X1828600I50600J-95600D01*
G01Y2751500D01*
X1672000Y2908100D01*
X973500D01*
X876100Y3005500D01*
Y3894500D01*
X720000Y4050600D01*
X588300D01*
G03X500000Y4101800I-88300J-50542D01*
G01Y6245800D01*
X754200D01*
Y6500000D01*
X9245800D01*
Y6245800D01*
X9500000D01*
Y3855800D01*
G03Y3652200I0J-101800D01*
G01Y3601800D01*
G03X9449400Y3411700I0J-101784D01*
G01Y1964400D01*
X9313600Y1828600D01*
X8985600D01*
G03Y1727400I-95600J-50600D01*
G01X9355600D01*
X9482600Y1854400D01*
G02X9500000Y1847200I7213J-7194D01*
G01Y754200D01*
X9245800D01*
Y500000D01*
X754200D01*
Y754200D01*
X500000D01*
Y1562800D01*
G02X517400Y1570000I10187J6D01*
G01X614000Y1473400D01*
X1678000D01*
G37*
%LPC*%
G75*
G36*
G01X6756200Y4749800D02*
Y4902200D01*
G02X6781800Y4927800I25600J0D01*
G01X6934200D01*
G02X6959800Y4902200I0J-25600D01*
G01Y4749800D01*
G02X6934200Y4724200I-25600J0D01*
G01X6781800D01*
G02X6756200Y4749800I0J25600D01*
G37*
G36*
G01X5740200Y1701800D02*
Y1854200D01*
G02X5765800Y1879800I25600J0D01*
G01X5918200D01*
G02X5943800Y1854200I0J-25600D01*
G01Y1701800D01*
G02X5918200Y1676200I-25600J0D01*
G01X5765800D01*
G02X5740200Y1701800I0J25600D01*
G37*
G36*
G01X2673200Y2444800D02*
Y2635200D01*
G02X2698800Y2660800I25550J50D01*
G01X2889200D01*
G02X2914800Y2635200I50J-25550D01*
G01Y2444800D01*
G02X2889200Y2419200I-25550J-50D01*
G01X2698800D01*
G02X2673200Y2444800I-50J25550D01*
G37*
G36*
G01X1930200Y3479800D02*
Y3632200D01*
G02X1955800Y3657800I25600J0D01*
G01X2108200D01*
G02X2133800Y3632200I0J-25600D01*
G01Y3479800D01*
G02X2108200Y3454200I-25600J0D01*
G01X1955800D01*
G02X1930200Y3479800I0J25600D01*
G37*
G36*
G01X3860600Y5185900D02*
Y4413600D01*
G02X3759400I-50600J-95600D01*
G01Y5227900D01*
X3916100Y5384600D01*
X4166200D01*
G02Y5283400I88300J-50600D01*
G01X3958100D01*
X3860600Y5185900D01*
G37*
G36*
G01Y3414000D02*
Y3397600D01*
G02X3759400I-50600J-95600D01*
G01Y3456000D01*
X3910000Y3606600D01*
X4984400D01*
G02Y3505400I95600J-50600D01*
G01X3952000D01*
X3860600Y3414000D01*
G37*
G36*
G01X6528400Y5074800D02*
X6672700Y5219100D01*
X6980600D01*
X7036400Y5274900D01*
Y5519800D01*
G02X7187600I75600J68200D01*
G01Y5212300D01*
X7043200Y5067900D01*
X6735300D01*
X6679600Y5012200D01*
Y4132200D01*
G02Y3995800I-75600J-68200D01*
G01Y3783800D01*
X6317000Y3421200D01*
G03X6324200Y3403800I7226J-7200D01*
G01X6426200D01*
G02X6451800Y3378200I0J-25600D01*
G01Y3225800D01*
G02X6426200Y3200200I-25600J0D01*
G01X6273800D01*
G02X6248200Y3225800I0J25600D01*
G01Y3327800D01*
G03X6230800Y3335000I-10200J-26D01*
G01X6171600Y3275800D01*
Y2608200D01*
G02X6020400I-75600J-68200D01*
G01Y3338400D01*
X6528400Y3846400D01*
Y3995800D01*
G02Y4132200I75600J68200D01*
G01Y5074800D01*
G37*
G36*
G01X3123600Y3841300D02*
Y2634300D01*
G02X2972400I-75600J-94300D01*
G01Y3778700D01*
X2826200Y3924900D01*
X2381700D01*
X2210400Y4096200D01*
Y4249800D01*
G02X2361600I75600J68200D01*
G01Y4158800D01*
X2444300Y4076100D01*
X2888800D01*
X3123600Y3841300D01*
G37*
G36*
G01X4876600Y2698400D02*
Y2127600D01*
G02X4775400I-50600J-95600D01*
G01Y2698400D01*
G02X4876600I50600J95600D01*
G37*
G36*
G01X6528400Y1999800D02*
X6699700Y2171100D01*
X6953700D01*
X7036400Y2253800D01*
Y3233800D01*
G02X7180200Y3377600I75600J68200D01*
G01X7398200D01*
X7544400Y3523800D01*
Y4757800D01*
G02X7695600I75600J68200D01*
G01Y3461200D01*
X7460800Y3226400D01*
X7187600D01*
Y2191200D01*
X7016300Y2019900D01*
X6762300D01*
X6679600Y1937200D01*
Y1846200D01*
G02X6528400I-75600J-68200D01*
G01Y1999800D01*
G37*
G36*
G01X8331400Y1989500D02*
X8839400Y2497500D01*
Y2698400D01*
G02Y2889600I50600J95600D01*
G01Y3206400D01*
G02X8940600I50600J95600D01*
G01Y2889600D01*
G02Y2698400I-50600J-95600D01*
G01Y2455500D01*
X8432600Y1947500D01*
Y1873600D01*
G02X8331400I-50600J-95600D01*
G01Y1989500D01*
G37*
G36*
G01X1574600Y1873600D02*
G02X1473400I-50600J-95600D01*
G01Y2444400D01*
G02X1574600I50600J95600D01*
G01Y1873600D01*
G37*
G36*
G01X3422800Y1682800D02*
G02X3397200Y1657200I-25550J-50D01*
G01X3206800D01*
G02X3181200Y1682800I-50J25550D01*
G01Y1873200D01*
G02X3206800Y1898800I25550J50D01*
G01X3251400D01*
Y2430200D01*
G02X3352600I50600J109800D01*
G01Y1898800D01*
X3397200D01*
G02X3422800Y1873200I50J-25550D01*
G01Y1682800D01*
G37*
G36*
G01X2869600Y3487800D02*
Y3307200D01*
X2725300Y3162900D01*
X2544300D01*
X2488600Y3107200D01*
Y2317200D01*
X2571200Y2234600D01*
X2979300D01*
X3123600Y2090300D01*
Y1872300D01*
G02X2972400I-75600J-94300D01*
G01Y2027700D01*
X2916700Y2083400D01*
X2508600D01*
X2337400Y2254600D01*
Y3169800D01*
X2481700Y3314100D01*
X2662700D01*
X2718400Y3369800D01*
Y3487800D01*
G02X2869600I75600J68200D01*
G37*
G54D18*
X2540000Y3556000D03*
X2286000D03*
X2540000Y4318000D03*
X2032000D03*
X2794000D03*
X4762500Y5334000D03*
X4508500Y5080000D03*
X6350000Y1778000D03*
X6096000D03*
X6350000Y2540000D03*
X5842000D03*
X6350000Y4064000D03*
X6604000Y2540000D03*
Y3302000D03*
X6858000D03*
X7112000Y4064000D03*
X6858000D03*
X7112000Y4826000D03*
X6858000Y5588000D03*
X7366000Y4826000D03*
X7620000Y5588000D03*
X7366000D03*
G54D20*
X3302000Y3302000D03*
Y4318000D03*
X4572000Y2032000D03*
X4318000Y3302000D03*
X4572000Y2794000D03*
X4318000Y4318000D03*
X5080000Y3810000D03*
X5397500Y4826000D03*
Y5842000D03*
X6032500Y4572000D03*
Y5588000D03*
X7874000Y3302000D03*
Y4318000D03*
X8001000Y5397500D03*
Y5143500D03*
X8382000Y3302000D03*
Y2794000D03*
Y4318000D03*
X8890000D03*
G54D19*
X2794000Y1778000D03*
%LPD*%
G75*
G54D10*
X500000Y500000D03*
Y6500000D03*
X9500000Y500000D03*
Y6500000D03*
G54D11*
X500000Y3492000D03*
Y3746000D03*
Y4000000D03*
X2540000Y3556000D03*
X2286000D03*
X2540000Y4318000D03*
X2286000D03*
X2032000D03*
X2794000Y3556000D03*
Y4318000D03*
X4254500Y5334000D03*
X4762500D03*
X4508500Y5080000D03*
X6350000Y1778000D03*
X6096000D03*
X6350000Y2540000D03*
X6096000D03*
X5842000D03*
X6350000Y4064000D03*
X6604000Y1778000D03*
Y2540000D03*
X7112000Y3302000D03*
X6858000D03*
X6604000D03*
X7112000Y4064000D03*
X6858000D03*
X6604000D03*
X7112000Y4826000D03*
Y5588000D03*
X6858000D03*
X7620000Y4826000D03*
X7366000D03*
X7620000Y5588000D03*
X7366000D03*
X9500000Y3754000D03*
Y3500000D03*
G54D12*
X1778000Y1778000D03*
X1524000D03*
Y2540000D03*
X1778000D03*
X3302000Y3302000D03*
Y4318000D03*
X3810000Y3302000D03*
Y4318000D03*
X4572000Y2032000D03*
X4826000D03*
X4318000Y3302000D03*
X4826000Y2794000D03*
X4572000D03*
X4318000Y4318000D03*
X5080000Y3810000D03*
Y3556000D03*
X5397500Y4826000D03*
Y5842000D03*
X6032500Y4572000D03*
Y5588000D03*
X7874000Y3302000D03*
Y4318000D03*
X8001000Y5397500D03*
Y5143500D03*
X8382000Y1778000D03*
Y3302000D03*
Y2794000D03*
Y4318000D03*
X8890000Y1778000D03*
Y2794000D03*
Y3302000D03*
Y4318000D03*
G54D13*
X2032000Y3556000D03*
X5842000Y1778000D03*
X6350000Y3302000D03*
X6858000Y4826000D03*
G54D14*
X3302000Y1778000D03*
X2794000Y2540000D03*
G54D15*
X3048000Y1778000D03*
X2794000D03*
X3048000Y2540000D03*
X3302000D03*
G54D16*
G01X635000Y3746000D02*
Y3746500D01*
G01X500000Y3746000D02*
X635000D01*
G01X2794000Y3556000D02*
Y3338500D01*
X2694000Y3238500D01*
X2513000D01*
X2413000Y3138500D01*
Y2285900D01*
X2539900Y2159000D01*
X2948000D01*
X3048000Y2059000D01*
Y1778000D01*
G01Y2540000D02*
Y3810000D01*
X2857500Y4000500D01*
X2413000D01*
X2286000Y4127500D01*
Y4318000D01*
G01X4318000Y4204700D02*
Y4318000D01*
G01D02*
Y4431300D01*
G01X4204700Y4318000D02*
X4318000D01*
G01D02*
X4431300D01*
G01X5397500Y5728700D02*
Y5842000D01*
G01D02*
Y5955300D01*
G01X5284200Y5842000D02*
X5397500D01*
G01D02*
X5510800D01*
G01X6096000Y1671100D02*
Y1778000D01*
G01D02*
Y1884900D01*
G01X6604000Y4064000D02*
Y3815100D01*
X6096000Y3307100D01*
Y2540000D01*
G01X7112000Y3302000D02*
Y2222500D01*
X6985000Y2095500D01*
X6731000D01*
X6604000Y1968500D01*
Y1778000D01*
G01X7620000Y4826000D02*
Y3492500D01*
X7429500Y3302000D01*
X7112000D01*
G01Y5588000D02*
Y5243600D01*
X7011900Y5143500D01*
X6704000D01*
X6604000Y5043500D01*
Y4064000D01*
G01X8001000Y5397500D02*
Y5510800D01*
G01X7887700Y5397500D02*
X8001000D01*
G01D02*
X8114300D01*
G01X8382000Y4204700D02*
Y4318000D01*
G01D02*
Y4431300D01*
G01X8268700Y4318000D02*
X8382000D01*
G01D02*
X8495300D01*
G01X9500000Y3754000D02*
Y3860900D01*
G01X9393100Y3754000D02*
X9500000D01*
G54D17*
G01X1778000Y1778000D02*
Y1645000D01*
X1657000Y1524000D01*
X635000D01*
X500000Y1659000D01*
Y3492000D01*
G01X1778000Y2540000D02*
Y2730500D01*
X1651000Y2857500D01*
X952500D01*
X825500Y2984500D01*
Y3873500D01*
X699000Y4000000D01*
X500000D01*
G01X1524000Y1778000D02*
Y2540000D01*
G01X3302000Y1778000D02*
Y2540000D01*
G01X5080000Y3556000D02*
X3931000D01*
X3810000Y3435000D01*
Y3302000D01*
G01X4254500Y5334000D02*
X3937100D01*
X3810000Y5206900D01*
Y4318000D01*
G01X4826000Y2032000D02*
Y2794000D01*
G01X8890000D02*
Y2476500D01*
X8382000Y1968500D01*
Y1778000D01*
G01X9500000Y3500000D02*
Y1943400D01*
X9334600Y1778000D01*
X8890000D01*
G01Y2794000D02*
Y3302000D01*
M02*
