G04 ================== begin FILE IDENTIFICATION RECORD ==================*
G04 Layout Name:  C:/USERS/USER/DESKTOP/WORKSPACE/OSCILLATOR/allegro/OSCILLATOR.brd*
G04 Film Name:    DrillDraw*
G04 File Format:  Gerber RS274X*
G04 File Origin:  Cadence Allegro 17.2-P019*
G04 Origin Date:  Thu Aug 01 11:30:37 2019*
G04 *
G04 Layer:  BOARD GEOMETRY/OUTLINE*
G04 Layer:  BOARD GEOMETRY/DESIGN_OUTLINE*
G04 *
G04 Offset:    (0.000 0.000)*
G04 Mirror:    No*
G04 Mode:      Positive*
G04 Rotation:  0*
G04 FullContactRelief:  No*
G04 UndefLineWidth:     0.100*
G04 ================== end FILE IDENTIFICATION RECORD ====================*
%FSLAX25Y25*MOMM*%
%IR0*IPPOS*OFA0.00000B0.00000*MIA0B0*SFA1.00000B1.00000*%
%ADD10C,.5*%
%ADD11C,.1*%
G75*
%LPD*%
G75*
G54D10*
G01X3998500Y381000D02*
X3898500D01*
Y881000D01*
X3998500D01*
G01X3958500Y639300D02*
X3898500D01*
G01X4063700Y881000D02*
Y381000D01*
X4163700D01*
G01X4328900D02*
X4228900D01*
Y881000D01*
X4328900D01*
G01X4288900Y639300D02*
X4228900D01*
G01X4499100Y839300D02*
X4484100Y864300D01*
X4466600Y881000D01*
X4446600D01*
X4424100Y856000D01*
X4406600Y814300D01*
X4394100Y764300D01*
X4384100Y681000D01*
X4381600Y606000D01*
X4386600Y531000D01*
X4394100Y481000D01*
X4409100Y431000D01*
X4426600Y397700D01*
X4444100Y381000D01*
X4461600D01*
X4479100Y397700D01*
X4494100Y422700D01*
X4506600Y456000D01*
G01X4609300Y881000D02*
Y381000D01*
G01X4551800Y881000D02*
X4666800D01*
G01X4724500Y381000D02*
Y881000D01*
X4787000D01*
X4807000Y856000D01*
X4819500Y822700D01*
X4824500Y756000D01*
X4819500Y689300D01*
X4804500Y647700D01*
X4787000Y622700D01*
X4724500D01*
G01X4787000D02*
X4824500Y381000D01*
G01X4939700D02*
X4919700Y389300D01*
X4902200Y422700D01*
X4887200Y472700D01*
X4877200Y531000D01*
X4872200Y597700D01*
Y664300D01*
X4877200Y731000D01*
X4887200Y789300D01*
X4902200Y839300D01*
X4919700Y872700D01*
X4939700Y881000D01*
X4959700Y872700D01*
X4977200Y839300D01*
X4992200Y789300D01*
X5002200Y731000D01*
X5007200Y664300D01*
Y597700D01*
X5002200Y531000D01*
X4992200Y472700D01*
X4977200Y422700D01*
X4959700Y389300D01*
X4939700Y381000D01*
G01X5047400D02*
Y881000D01*
X5162400Y381000D01*
Y881000D01*
G01X5240100D02*
X5300100D01*
G01X5270100D02*
Y381000D01*
G01X5240100D02*
X5300100D01*
G01X5490300Y839300D02*
X5475300Y864300D01*
X5457800Y881000D01*
X5437800D01*
X5415300Y856000D01*
X5397800Y814300D01*
X5385300Y764300D01*
X5375300Y681000D01*
X5372800Y606000D01*
X5377800Y531000D01*
X5385300Y481000D01*
X5400300Y431000D01*
X5417800Y397700D01*
X5435300Y381000D01*
X5452800D01*
X5470300Y397700D01*
X5485300Y422700D01*
X5497800Y456000D01*
G01X5820700Y839300D02*
X5805700Y864300D01*
X5788200Y881000D01*
X5768200D01*
X5745700Y856000D01*
X5728200Y814300D01*
X5715700Y764300D01*
X5705700Y681000D01*
X5703200Y606000D01*
X5708200Y531000D01*
X5715700Y481000D01*
X5730700Y431000D01*
X5748200Y397700D01*
X5765700Y381000D01*
X5783200D01*
X5800700Y397700D01*
X5815700Y422700D01*
X5828200Y456000D01*
G01X5868400Y381000D02*
X5930900Y881000D01*
X5993400Y381000D01*
G01X5970900Y556000D02*
X5890900D01*
G01X6041100Y381000D02*
Y881000D01*
X6091100D01*
X6111100Y856000D01*
X6126100Y822700D01*
X6138600Y772700D01*
X6148600Y714300D01*
X6151100Y631000D01*
X6148600Y547700D01*
X6138600Y489300D01*
X6126100Y439300D01*
X6111100Y406000D01*
X6091100Y381000D01*
X6041100D01*
G01X4139000Y6096000D02*
X4119000Y6104300D01*
X4101500Y6137700D01*
X4086500Y6187700D01*
X4076500Y6246000D01*
X4071500Y6312700D01*
Y6379300D01*
X4076500Y6446000D01*
X4086500Y6504300D01*
X4101500Y6554300D01*
X4119000Y6587700D01*
X4139000Y6596000D01*
X4159000Y6587700D01*
X4176500Y6554300D01*
X4191500Y6504300D01*
X4201500Y6446000D01*
X4206500Y6379300D01*
Y6312700D01*
X4201500Y6246000D01*
X4191500Y6187700D01*
X4176500Y6137700D01*
X4159000Y6104300D01*
X4139000Y6096000D01*
G01X4251700Y6162700D02*
X4271700Y6121000D01*
X4294200Y6096000D01*
X4314200D01*
X4334200Y6121000D01*
X4349200Y6162700D01*
X4356700Y6221000D01*
X4351700Y6279300D01*
X4339200Y6329300D01*
X4316700Y6362700D01*
X4286700Y6379300D01*
X4269200Y6412700D01*
X4261700Y6471000D01*
X4266700Y6529300D01*
X4279200Y6571000D01*
X4296700Y6596000D01*
X4314200D01*
X4331700Y6579300D01*
X4346700Y6537700D01*
G01X4524400Y6554300D02*
X4509400Y6579300D01*
X4491900Y6596000D01*
X4471900D01*
X4449400Y6571000D01*
X4431900Y6529300D01*
X4419400Y6479300D01*
X4409400Y6396000D01*
X4406900Y6321000D01*
X4411900Y6246000D01*
X4419400Y6196000D01*
X4434400Y6146000D01*
X4451900Y6112700D01*
X4469400Y6096000D01*
X4486900D01*
X4504400Y6112700D01*
X4519400Y6137700D01*
X4531900Y6171000D01*
G01X4604600Y6596000D02*
X4664600D01*
G01X4634600D02*
Y6096000D01*
G01X4604600D02*
X4664600D01*
G01X4749800Y6596000D02*
Y6096000D01*
X4849800D01*
G01X4915000Y6596000D02*
Y6096000D01*
X5015000D01*
G01X5067700D02*
X5130200Y6596000D01*
X5192700Y6096000D01*
G01X5170200Y6271000D02*
X5090200D01*
G01X5295400Y6596000D02*
Y6096000D01*
G01X5237900Y6596000D02*
X5352900D01*
G01X5460600Y6096000D02*
X5440600Y6104300D01*
X5423100Y6137700D01*
X5408100Y6187700D01*
X5398100Y6246000D01*
X5393100Y6312700D01*
Y6379300D01*
X5398100Y6446000D01*
X5408100Y6504300D01*
X5423100Y6554300D01*
X5440600Y6587700D01*
X5460600Y6596000D01*
X5480600Y6587700D01*
X5498100Y6554300D01*
X5513100Y6504300D01*
X5523100Y6446000D01*
X5528100Y6379300D01*
Y6312700D01*
X5523100Y6246000D01*
X5513100Y6187700D01*
X5498100Y6137700D01*
X5480600Y6104300D01*
X5460600Y6096000D01*
G01X5575800D02*
Y6596000D01*
X5638300D01*
X5658300Y6571000D01*
X5670800Y6537700D01*
X5675800Y6471000D01*
X5670800Y6404300D01*
X5655800Y6362700D01*
X5638300Y6337700D01*
X5575800D01*
G01X5638300D02*
X5675800Y6096000D01*
G54D11*
G01X0Y0D02*
Y7000000D01*
X10000000D01*
Y0D01*
X0D01*
M02*
