G04 ================== begin FILE IDENTIFICATION RECORD ==================*
G04 Layout Name:  C:/USERS/USER/DESKTOP/WORKSPACE/OSCILLATOR/allegro/OSCILLATOR.brd*
G04 Film Name:    DrillDraw*
G04 File Format:  Gerber RS274X*
G04 File Origin:  Cadence Allegro 17.2-P019*
G04 Origin Date:  Thu Aug 01 10:34:50 2019*
G04 *
G04 Layer:  BOARD GEOMETRY/OUTLINE*
G04 Layer:  BOARD GEOMETRY/DESIGN_OUTLINE*
G04 *
G04 Offset:    (0.000 0.000)*
G04 Mirror:    No*
G04 Mode:      Positive*
G04 Rotation:  0*
G04 FullContactRelief:  No*
G04 UndefLineWidth:     0.100*
G04 ================== end FILE IDENTIFICATION RECORD ====================*
%FSLAX25Y25*MOMM*%
%IR0*IPPOS*OFA0.00000B0.00000*MIA0B0*SFA1.00000B1.00000*%
%ADD10C,.5*%
%ADD11C,.1*%
G75*
%LPD*%
G75*
G54D10*
G01X4443000Y508000D02*
X4343000D01*
Y1008000D01*
X4443000D01*
G01X4403000Y766300D02*
X4343000D01*
G01X4508200Y1008000D02*
Y508000D01*
X4608200D01*
G01X4773400D02*
X4673400D01*
Y1008000D01*
X4773400D01*
G01X4733400Y766300D02*
X4673400D01*
G01X4943600Y966300D02*
X4928600Y991300D01*
X4911100Y1008000D01*
X4891100D01*
X4868600Y983000D01*
X4851100Y941300D01*
X4838600Y891300D01*
X4828600Y808000D01*
X4826100Y733000D01*
X4831100Y658000D01*
X4838600Y608000D01*
X4853600Y558000D01*
X4871100Y524700D01*
X4888600Y508000D01*
X4906100D01*
X4923600Y524700D01*
X4938600Y549700D01*
X4951100Y583000D01*
G01X5053800Y1008000D02*
Y508000D01*
G01X4996300Y1008000D02*
X5111300D01*
G01X5169000Y508000D02*
Y1008000D01*
X5231500D01*
X5251500Y983000D01*
X5264000Y949700D01*
X5269000Y883000D01*
X5264000Y816300D01*
X5249000Y774700D01*
X5231500Y749700D01*
X5169000D01*
G01X5231500D02*
X5269000Y508000D01*
G01X5384200D02*
X5364200Y516300D01*
X5346700Y549700D01*
X5331700Y599700D01*
X5321700Y658000D01*
X5316700Y724700D01*
Y791300D01*
X5321700Y858000D01*
X5331700Y916300D01*
X5346700Y966300D01*
X5364200Y999700D01*
X5384200Y1008000D01*
X5404200Y999700D01*
X5421700Y966300D01*
X5436700Y916300D01*
X5446700Y858000D01*
X5451700Y791300D01*
Y724700D01*
X5446700Y658000D01*
X5436700Y599700D01*
X5421700Y549700D01*
X5404200Y516300D01*
X5384200Y508000D01*
G01X5491900D02*
Y1008000D01*
X5606900Y508000D01*
Y1008000D01*
G01X5684600D02*
X5744600D01*
G01X5714600D02*
Y508000D01*
G01X5684600D02*
X5744600D01*
G01X5934800Y966300D02*
X5919800Y991300D01*
X5902300Y1008000D01*
X5882300D01*
X5859800Y983000D01*
X5842300Y941300D01*
X5829800Y891300D01*
X5819800Y808000D01*
X5817300Y733000D01*
X5822300Y658000D01*
X5829800Y608000D01*
X5844800Y558000D01*
X5862300Y524700D01*
X5879800Y508000D01*
X5897300D01*
X5914800Y524700D01*
X5929800Y549700D01*
X5942300Y583000D01*
G01X6265200Y966300D02*
X6250200Y991300D01*
X6232700Y1008000D01*
X6212700D01*
X6190200Y983000D01*
X6172700Y941300D01*
X6160200Y891300D01*
X6150200Y808000D01*
X6147700Y733000D01*
X6152700Y658000D01*
X6160200Y608000D01*
X6175200Y558000D01*
X6192700Y524700D01*
X6210200Y508000D01*
X6227700D01*
X6245200Y524700D01*
X6260200Y549700D01*
X6272700Y583000D01*
G01X6312900Y508000D02*
X6375400Y1008000D01*
X6437900Y508000D01*
G01X6415400Y683000D02*
X6335400D01*
G01X6485600Y508000D02*
Y1008000D01*
X6535600D01*
X6555600Y983000D01*
X6570600Y949700D01*
X6583100Y899700D01*
X6593100Y841300D01*
X6595600Y758000D01*
X6593100Y674700D01*
X6583100Y616300D01*
X6570600Y566300D01*
X6555600Y533000D01*
X6535600Y508000D01*
X6485600D01*
G01X4393000Y6096000D02*
X4373000Y6104300D01*
X4355500Y6137700D01*
X4340500Y6187700D01*
X4330500Y6246000D01*
X4325500Y6312700D01*
Y6379300D01*
X4330500Y6446000D01*
X4340500Y6504300D01*
X4355500Y6554300D01*
X4373000Y6587700D01*
X4393000Y6596000D01*
X4413000Y6587700D01*
X4430500Y6554300D01*
X4445500Y6504300D01*
X4455500Y6446000D01*
X4460500Y6379300D01*
Y6312700D01*
X4455500Y6246000D01*
X4445500Y6187700D01*
X4430500Y6137700D01*
X4413000Y6104300D01*
X4393000Y6096000D01*
G01X4505700Y6162700D02*
X4525700Y6121000D01*
X4548200Y6096000D01*
X4568200D01*
X4588200Y6121000D01*
X4603200Y6162700D01*
X4610700Y6221000D01*
X4605700Y6279300D01*
X4593200Y6329300D01*
X4570700Y6362700D01*
X4540700Y6379300D01*
X4523200Y6412700D01*
X4515700Y6471000D01*
X4520700Y6529300D01*
X4533200Y6571000D01*
X4550700Y6596000D01*
X4568200D01*
X4585700Y6579300D01*
X4600700Y6537700D01*
G01X4778400Y6554300D02*
X4763400Y6579300D01*
X4745900Y6596000D01*
X4725900D01*
X4703400Y6571000D01*
X4685900Y6529300D01*
X4673400Y6479300D01*
X4663400Y6396000D01*
X4660900Y6321000D01*
X4665900Y6246000D01*
X4673400Y6196000D01*
X4688400Y6146000D01*
X4705900Y6112700D01*
X4723400Y6096000D01*
X4740900D01*
X4758400Y6112700D01*
X4773400Y6137700D01*
X4785900Y6171000D01*
G01X4858600Y6596000D02*
X4918600D01*
G01X4888600D02*
Y6096000D01*
G01X4858600D02*
X4918600D01*
G01X5003800Y6596000D02*
Y6096000D01*
X5103800D01*
G01X5169000Y6596000D02*
Y6096000D01*
X5269000D01*
G01X5321700D02*
X5384200Y6596000D01*
X5446700Y6096000D01*
G01X5424200Y6271000D02*
X5344200D01*
G01X5549400Y6596000D02*
Y6096000D01*
G01X5491900Y6596000D02*
X5606900D01*
G01X5714600Y6096000D02*
X5694600Y6104300D01*
X5677100Y6137700D01*
X5662100Y6187700D01*
X5652100Y6246000D01*
X5647100Y6312700D01*
Y6379300D01*
X5652100Y6446000D01*
X5662100Y6504300D01*
X5677100Y6554300D01*
X5694600Y6587700D01*
X5714600Y6596000D01*
X5734600Y6587700D01*
X5752100Y6554300D01*
X5767100Y6504300D01*
X5777100Y6446000D01*
X5782100Y6379300D01*
Y6312700D01*
X5777100Y6246000D01*
X5767100Y6187700D01*
X5752100Y6137700D01*
X5734600Y6104300D01*
X5714600Y6096000D01*
G01X5829800D02*
Y6596000D01*
X5892300D01*
X5912300Y6571000D01*
X5924800Y6537700D01*
X5929800Y6471000D01*
X5924800Y6404300D01*
X5909800Y6362700D01*
X5892300Y6337700D01*
X5829800D01*
G01X5892300D02*
X5929800Y6096000D01*
G54D11*
G01X0Y0D02*
Y7000000D01*
X10000000D01*
Y0D01*
X0D01*
M02*
