G04 ================== begin FILE IDENTIFICATION RECORD ==================*
G04 Layout Name:  C:/USERS/USER/DESKTOP/WORKSPACE/OSCILLATOR/allegro/OSCILLATOR.brd*
G04 Film Name:    SilkT*
G04 File Format:  Gerber RS274X*
G04 File Origin:  Cadence Allegro 17.2-P019*
G04 Origin Date:  Thu Aug 01 10:34:50 2019*
G04 *
G04 Layer:  REF DES/SILKSCREEN_TOP*
G04 Layer:  PACKAGE GEOMETRY/SILKSCREEN_TOP*
G04 Layer:  BOARD GEOMETRY/SILKSCREEN_TOP*
G04 *
G04 Offset:    (0.000 0.000)*
G04 Mirror:    No*
G04 Mode:      Positive*
G04 Rotation:  0*
G04 FullContactRelief:  No*
G04 UndefLineWidth:     0.200*
G04 ================== end FILE IDENTIFICATION RECORD ====================*
%FSLAX25Y25*MOMM*%
%IR0*IPPOS*OFA0.00000B0.00000*MIA0B0*SFA1.00000B1.00000*%
%ADD10C,.203*%
%ADD11C,.2*%
G75*
%LPD*%
G75*
G54D10*
G01X3327400Y2565400D02*
X2260600D01*
G01D02*
Y1993900D01*
G01D02*
X3327400D01*
G01Y2133600D02*
X2260600D01*
G01Y3340100D02*
Y2768600D01*
G01D02*
X3327400D01*
G01Y3340100D02*
X2260600D01*
G01Y3200400D02*
X3327400D01*
G01Y1993900D02*
Y2565400D01*
G01Y2768600D02*
Y3340100D01*
G54D11*
G01X328700Y8313300D02*
Y9024500D01*
X582700D01*
Y8313300D01*
X328700D01*
G01X373000Y4127000D02*
X627000D01*
Y3365000D01*
X373000D01*
Y4127000D01*
G01X665600Y4109700D02*
X657800Y4104800D01*
X652500Y4099000D01*
X649900Y4092100D01*
X652500Y4084400D01*
X657800Y4078500D01*
X665600Y4072700D01*
X676100Y4070700D01*
X728600D01*
G01X649900Y4011500D02*
X728600D01*
X712900Y4023200D01*
G01X649900D02*
Y3999800D01*
G01X498900Y7786300D02*
X651300D01*
X714800Y7722800D01*
X841800D01*
X905300Y7786300D01*
X1057700D01*
Y6770300D01*
X498900D01*
Y7786300D01*
G01X661400Y8313300D02*
Y9024500D01*
X915400D01*
Y8313300D01*
X661400D01*
G01X605100Y8783200D02*
Y8861900D01*
X629500D01*
X637300Y8858000D01*
X642100Y8852700D01*
X644100Y8842200D01*
X642100Y8831700D01*
X636300Y8825200D01*
X629500Y8821200D01*
X605100D01*
G01X629500D02*
X644100Y8783200D01*
G01X701400D02*
X703300Y8800300D01*
X706200Y8814700D01*
X710100Y8827800D01*
X715000Y8842200D01*
X722800Y8861900D01*
X683800D01*
G01X937800Y8783200D02*
Y8861900D01*
X962200D01*
X970000Y8858000D01*
X974800Y8852700D01*
X976800Y8842200D01*
X974800Y8831700D01*
X969000Y8825200D01*
X962200Y8821200D01*
X937800D01*
G01X962200D02*
X976800Y8783200D01*
G01X1019500Y8792400D02*
X1026300Y8785800D01*
X1034100Y8783200D01*
X1041800Y8785800D01*
X1048700Y8793700D01*
X1053500Y8805500D01*
X1055500Y8817300D01*
Y8831700D01*
X1053500Y8843500D01*
X1048700Y8854000D01*
X1042800Y8859300D01*
X1036000Y8861900D01*
X1028200Y8859300D01*
X1022400Y8854000D01*
X1018500Y8846200D01*
X1016500Y8835700D01*
X1018500Y8826500D01*
X1023300Y8817300D01*
X1029200Y8812100D01*
X1036000Y8810700D01*
X1043800Y8813400D01*
X1049600Y8819900D01*
X1055500Y8831700D01*
G01X1960400Y2036000D02*
X1966800Y2045600D01*
X1971000Y2056900D01*
Y2069700D01*
X1964600Y2084200D01*
X1954100Y2095500D01*
X1941400Y2103500D01*
X1920200Y2110000D01*
X1901100Y2111600D01*
X1882100Y2108300D01*
X1869400Y2103500D01*
X1856700Y2093900D01*
X1848200Y2082600D01*
X1844000Y2071400D01*
Y2060100D01*
X1848200Y2048800D01*
X1854600Y2039200D01*
X1863000Y2031100D01*
G01Y1977200D02*
X1852500Y1967600D01*
X1846100Y1956300D01*
X1844000Y1941900D01*
X1848200Y1927400D01*
X1856700Y1916100D01*
X1871500Y1908100D01*
X1888400Y1906500D01*
X1905400Y1909700D01*
X1916000Y1917700D01*
X1924400Y1929000D01*
X1926500Y1940200D01*
X1924400Y1951500D01*
X1916000Y1966000D01*
X1971000Y1961200D01*
Y1917700D01*
G01X1397000Y2413000D02*
X1905000D01*
Y2159000D01*
X1397000D01*
Y2413000D01*
G01X1341600Y3298000D02*
X1335200Y3288400D01*
X1331000Y3277100D01*
Y3264300D01*
X1337400Y3249800D01*
X1347900Y3238500D01*
X1360600Y3230500D01*
X1381800Y3224000D01*
X1400900Y3222400D01*
X1419900Y3225700D01*
X1432600Y3230500D01*
X1445300Y3240100D01*
X1453800Y3251400D01*
X1458000Y3262600D01*
Y3273900D01*
X1453800Y3285200D01*
X1447400Y3294800D01*
X1439000Y3302900D01*
G01X1432600Y3356800D02*
X1447400Y3366400D01*
X1455900Y3379300D01*
X1458000Y3393800D01*
X1455900Y3406600D01*
X1445300Y3419500D01*
X1432600Y3427500D01*
X1419900Y3429100D01*
X1405100Y3425900D01*
X1394500Y3414700D01*
X1390300Y3403400D01*
Y3388900D01*
G01Y3403400D02*
X1383900Y3413100D01*
X1373300Y3421100D01*
X1360600Y3424300D01*
X1347900Y3421100D01*
X1337400Y3413100D01*
X1331000Y3398600D01*
X1333100Y3384100D01*
X1341600Y3369600D01*
G01X1905000Y2921000D02*
X1397000D01*
Y3175000D01*
X1905000D01*
Y2921000D01*
G01X1248100Y5265300D02*
Y5976500D01*
X1502100D01*
Y5265300D01*
X1248100D01*
G01X1580800D02*
Y5976500D01*
X1834800D01*
Y5265300D01*
X1580800D01*
G01X1524500Y5735200D02*
Y5813900D01*
X1548900D01*
X1556700Y5810000D01*
X1561500Y5804700D01*
X1563500Y5794200D01*
X1561500Y5783700D01*
X1555700Y5777200D01*
X1548900Y5773200D01*
X1524500D01*
G01X1548900D02*
X1563500Y5735200D01*
G01X1622700D02*
X1629500Y5736500D01*
X1637300Y5740400D01*
X1642200Y5747000D01*
X1644100Y5756200D01*
X1642200Y5765400D01*
X1636300Y5773200D01*
X1627600Y5777200D01*
X1617800D01*
X1612000Y5779800D01*
X1607100Y5786400D01*
X1605200Y5795500D01*
X1608100Y5804700D01*
X1614900Y5811300D01*
X1622700Y5813900D01*
X1630500Y5811300D01*
X1637300Y5804700D01*
X1640200Y5795500D01*
X1638300Y5786400D01*
X1633400Y5779800D01*
X1627600Y5777200D01*
X1617800D01*
X1609100Y5773200D01*
X1603200Y5765400D01*
X1601300Y5756200D01*
X1603200Y5747000D01*
X1608100Y5740400D01*
X1615900Y5736500D01*
X1622700Y5735200D01*
G01X1857200D02*
Y5813900D01*
X1881600D01*
X1889400Y5810000D01*
X1894200Y5804700D01*
X1896200Y5794200D01*
X1894200Y5783700D01*
X1888400Y5777200D01*
X1881600Y5773200D01*
X1857200D01*
G01X1881600D02*
X1896200Y5735200D01*
G01X1936900Y5800800D02*
X1942700Y5808700D01*
X1949600Y5812600D01*
X1957300Y5813900D01*
X1967100Y5811300D01*
X1973900Y5804700D01*
X1975800Y5796800D01*
X1974900Y5789000D01*
X1971000Y5782400D01*
X1951500Y5769300D01*
X1942700Y5760100D01*
X1936900Y5747000D01*
X1935000Y5735200D01*
X1975800D01*
G01X1535200Y7786300D02*
X1687600D01*
X1751100Y7722800D01*
X1878100D01*
X1941600Y7786300D01*
X2094000D01*
Y6770300D01*
X1535200D01*
Y7786300D01*
G01X1303000Y7641500D02*
Y7550500D01*
X1309400Y7531400D01*
X1322300Y7518700D01*
X1338300Y7514500D01*
X1354400Y7518700D01*
X1367300Y7531400D01*
X1373700Y7550500D01*
Y7641500D01*
G01X1487200Y7514500D02*
Y7641500D01*
X1427600Y7550500D01*
X1508100D01*
G01X2269400Y2733000D02*
Y2596500D01*
X2278800Y2567900D01*
X2297800Y2548800D01*
X2321500Y2542500D01*
X2345200Y2548800D01*
X2364200Y2567900D01*
X2373600Y2596500D01*
Y2733000D01*
G01X2459900Y2571100D02*
X2474100Y2555200D01*
X2490700Y2545700D01*
X2512000Y2542500D01*
X2533300Y2548800D01*
X2549900Y2561500D01*
X2561800Y2583800D01*
X2564100Y2609200D01*
X2559400Y2634600D01*
X2547500Y2650500D01*
X2531000Y2663100D01*
X2514400Y2666300D01*
X2497800Y2663100D01*
X2476500Y2650500D01*
X2483600Y2733000D01*
X2547500D01*
G01X1913500Y5265300D02*
Y5976500D01*
X2167500D01*
Y5265300D01*
X1913500D01*
G01X2189900Y5735200D02*
Y5813900D01*
X2214300D01*
X2222100Y5810000D01*
X2226900Y5804700D01*
X2228900Y5794200D01*
X2226900Y5783700D01*
X2221100Y5777200D01*
X2214300Y5773200D01*
X2189900D01*
G01X2214300D02*
X2228900Y5735200D01*
G01X2266700Y5747000D02*
X2272500Y5740400D01*
X2279300Y5736500D01*
X2288100Y5735200D01*
X2296900Y5737800D01*
X2303700Y5743100D01*
X2308500Y5752300D01*
X2309500Y5762700D01*
X2307600Y5773200D01*
X2302700Y5779800D01*
X2295900Y5785000D01*
X2289100Y5786400D01*
X2282300Y5785000D01*
X2273500Y5779800D01*
X2276400Y5813900D01*
X2302700D01*
G01X2339300Y7641500D02*
Y7550500D01*
X2345700Y7531400D01*
X2358600Y7518700D01*
X2374600Y7514500D01*
X2390700Y7518700D01*
X2403600Y7531400D01*
X2410000Y7550500D01*
Y7641500D01*
G01X2468800Y7539900D02*
X2478400Y7525100D01*
X2491300Y7516600D01*
X2505800Y7514500D01*
X2518600Y7516600D01*
X2531500Y7527200D01*
X2539500Y7539900D01*
X2541100Y7552600D01*
X2537900Y7567400D01*
X2526700Y7578000D01*
X2515400Y7582200D01*
X2500900D01*
G01X2515400D02*
X2525100Y7588600D01*
X2533100Y7599200D01*
X2536300Y7611900D01*
X2533100Y7624600D01*
X2525100Y7635100D01*
X2510600Y7641500D01*
X2496100Y7639400D01*
X2481600Y7630900D01*
G01X3318600Y2601000D02*
Y2737500D01*
X3309200Y2766100D01*
X3290200Y2785200D01*
X3266500Y2791500D01*
X3242800Y2785200D01*
X3223800Y2766100D01*
X3214400Y2737500D01*
Y2601000D01*
G01X3121000Y2712100D02*
X3104400Y2689900D01*
X3090200Y2677200D01*
X3071300Y2670900D01*
X3054700Y2677200D01*
X3042800Y2689900D01*
X3033300Y2709000D01*
X3031000Y2731200D01*
X3033300Y2750200D01*
X3042800Y2769300D01*
X3057000Y2785200D01*
X3073600Y2791500D01*
X3092600Y2785200D01*
X3109200Y2766100D01*
X3118700Y2737500D01*
X3121000Y2705800D01*
X3116300Y2664500D01*
X3109200Y2642300D01*
X3097300Y2620100D01*
X3080700Y2604200D01*
X3064200Y2601000D01*
X3047600Y2607300D01*
X3035700Y2623200D01*
G01X2825500Y4738300D02*
X2977900D01*
X3041400Y4674800D01*
X3168400D01*
X3231900Y4738300D01*
X3384300D01*
Y3722300D01*
X2825500D01*
Y4738300D01*
G01X3069100Y5265300D02*
Y5976500D01*
X3323100D01*
Y5265300D01*
X3069100D01*
G01X3113400Y5558200D02*
X3103800Y5564600D01*
X3092500Y5568800D01*
X3079700D01*
X3065200Y5562400D01*
X3053900Y5551900D01*
X3045900Y5539200D01*
X3039400Y5518000D01*
X3037800Y5498900D01*
X3041100Y5479900D01*
X3045900Y5467200D01*
X3055500Y5454500D01*
X3066800Y5446000D01*
X3078000Y5441800D01*
X3089300D01*
X3100600Y5446000D01*
X3110200Y5452400D01*
X3118300Y5460800D01*
G01X3177000Y5547600D02*
X3186600Y5560300D01*
X3197900Y5566700D01*
X3210800Y5568800D01*
X3226900Y5564600D01*
X3238100Y5554000D01*
X3241300Y5541300D01*
X3239700Y5528600D01*
X3233300Y5518000D01*
X3201100Y5496800D01*
X3186600Y5482000D01*
X3177000Y5460800D01*
X3173800Y5441800D01*
X3241300D01*
G01X2736400Y4994800D02*
Y5502800D01*
X2990400D01*
Y4994800D01*
X2736400D01*
G01X3345500Y5735200D02*
Y5813900D01*
X3369900D01*
X3377700Y5810000D01*
X3382500Y5804700D01*
X3384500Y5794200D01*
X3382500Y5783700D01*
X3376700Y5777200D01*
X3369900Y5773200D01*
X3345500D01*
G01X3369900D02*
X3384500Y5735200D01*
G01X3425200Y5768000D02*
X3432000Y5777200D01*
X3437900Y5782400D01*
X3445600Y5785000D01*
X3452500Y5782400D01*
X3457300Y5777200D01*
X3461200Y5769300D01*
X3462200Y5760100D01*
X3461200Y5752300D01*
X3457300Y5744400D01*
X3451500Y5737800D01*
X3444700Y5735200D01*
X3436900Y5737800D01*
X3430100Y5745700D01*
X3426200Y5757500D01*
X3425200Y5770600D01*
X3427200Y5787700D01*
X3430100Y5796800D01*
X3434900Y5806000D01*
X3441800Y5812600D01*
X3448600Y5813900D01*
X3455400Y5811300D01*
X3460200Y5804700D01*
G01X3881600Y2536000D02*
X3875200Y2526400D01*
X3871000Y2515100D01*
Y2502300D01*
X3877400Y2487800D01*
X3887900Y2476500D01*
X3900600Y2468500D01*
X3921800Y2462000D01*
X3940900Y2460400D01*
X3959900Y2463700D01*
X3972600Y2468500D01*
X3985300Y2478100D01*
X3993800Y2489400D01*
X3998000Y2500600D01*
Y2511900D01*
X3993800Y2523200D01*
X3987400Y2532800D01*
X3979000Y2540900D01*
G01X3945100Y2599600D02*
X3930300Y2610800D01*
X3921800Y2620500D01*
X3917600Y2633400D01*
X3921800Y2644600D01*
X3930300Y2652700D01*
X3943000Y2659100D01*
X3957800Y2660700D01*
X3970500Y2659100D01*
X3983200Y2652700D01*
X3993800Y2643000D01*
X3998000Y2631800D01*
X3993800Y2618900D01*
X3981100Y2607600D01*
X3962000Y2601200D01*
X3940900Y2599600D01*
X3913300Y2602800D01*
X3898500Y2607600D01*
X3883700Y2615700D01*
X3873100Y2626900D01*
X3871000Y2638200D01*
X3875200Y2649500D01*
X3885800Y2657500D01*
G01X4445000Y2159000D02*
X3937000D01*
Y2413000D01*
X4445000D01*
Y2159000D01*
G01X3937000Y3175000D02*
X4445000D01*
Y2921000D01*
X3937000D01*
Y3175000D01*
G01X3861800Y4738300D02*
X4014200D01*
X4077700Y4674800D01*
X4204700D01*
X4268200Y4738300D01*
X4420600D01*
Y3722300D01*
X3861800D01*
Y4738300D01*
G01X3629600Y4593500D02*
Y4502500D01*
X3636000Y4483400D01*
X3648900Y4470700D01*
X3664900Y4466500D01*
X3681000Y4470700D01*
X3693900Y4483400D01*
X3700300Y4502500D01*
Y4593500D01*
G01X3763900Y4572300D02*
X3773500Y4585000D01*
X3784800Y4591400D01*
X3797700Y4593500D01*
X3813800Y4589300D01*
X3825000Y4578700D01*
X3828200Y4566000D01*
X3826600Y4553300D01*
X3820200Y4542700D01*
X3788000Y4521500D01*
X3773500Y4506700D01*
X3763900Y4485500D01*
X3760700Y4466500D01*
X3828200D01*
G01X4500400Y2798000D02*
X4506800Y2807600D01*
X4511000Y2818900D01*
Y2831700D01*
X4504600Y2846200D01*
X4494100Y2857500D01*
X4481400Y2865500D01*
X4460200Y2872000D01*
X4441100Y2873600D01*
X4422100Y2870300D01*
X4409400Y2865500D01*
X4396700Y2855900D01*
X4388200Y2844600D01*
X4384000Y2833400D01*
Y2822100D01*
X4388200Y2810800D01*
X4394600Y2801200D01*
X4403000Y2793100D01*
G01X4384000Y2684500D02*
X4511000D01*
X4420000Y2744100D01*
Y2663600D01*
G01X4669500Y3770600D02*
Y4405600D01*
X5177500D01*
Y3770600D01*
X4669500D01*
G01X4665900Y4593500D02*
Y4502500D01*
X4672300Y4483400D01*
X4685200Y4470700D01*
X4701200Y4466500D01*
X4717300Y4470700D01*
X4730200Y4483400D01*
X4736600Y4502500D01*
Y4593500D01*
G01X4830700Y4466500D02*
Y4593500D01*
X4811400Y4568100D01*
G01Y4466500D02*
X4850000D01*
G01X4608900Y4563100D02*
X4649100Y4436100D01*
X4689400Y4563100D01*
G01X4746500Y4436100D02*
Y4563100D01*
X4786700D01*
X4799600Y4556700D01*
X4807600Y4548300D01*
X4810800Y4531300D01*
X4807600Y4514400D01*
X4798000Y4503800D01*
X4786700Y4497500D01*
X4746500D01*
G01X4786700D02*
X4810800Y4436100D01*
G01X4908100D02*
Y4563100D01*
X4888800Y4537700D01*
G01Y4436100D02*
X4927400D01*
G01X4523000Y5558200D02*
X4513400Y5564600D01*
X4502100Y5568800D01*
X4489300D01*
X4474800Y5562400D01*
X4463500Y5551900D01*
X4455500Y5539200D01*
X4449000Y5518000D01*
X4447400Y5498900D01*
X4450700Y5479900D01*
X4455500Y5467200D01*
X4465100Y5454500D01*
X4476400Y5446000D01*
X4487600Y5441800D01*
X4498900D01*
X4510200Y5446000D01*
X4519800Y5452400D01*
X4527900Y5460800D01*
G01X4617100Y5441800D02*
Y5568800D01*
X4597800Y5543400D01*
G01Y5441800D02*
X4636400D01*
G01X4146000Y4994800D02*
Y5502800D01*
X4400000D01*
Y4994800D01*
X4146000D01*
G01X8586200Y3992800D02*
Y4704000D01*
X8840200D01*
Y3992800D01*
X8586200D01*
G01X7999500Y7040800D02*
Y7752000D01*
X8253500D01*
Y7040800D01*
X7999500D01*
G01X8664900D02*
Y7752000D01*
X8918900D01*
Y7040800D01*
X8664900D01*
G01X8275900Y7510700D02*
Y7589400D01*
X8300300D01*
X8308100Y7585500D01*
X8312900Y7580200D01*
X8314900Y7569700D01*
X8312900Y7559200D01*
X8307100Y7552700D01*
X8300300Y7548700D01*
X8275900D01*
G01X8300300D02*
X8314900Y7510700D01*
G01X8385800D02*
Y7589400D01*
X8349800Y7533000D01*
X8398400D01*
G01X9344600Y3370000D02*
X9352400Y3374900D01*
X9357700Y3380700D01*
X9360300Y3387600D01*
X9357700Y3395300D01*
X9352400Y3401200D01*
X9344600Y3407000D01*
X9334100Y3409000D01*
X9281600D01*
G01X9294700Y3449700D02*
X9286800Y3455500D01*
X9282900Y3462400D01*
X9281600Y3470100D01*
X9284200Y3479900D01*
X9290800Y3486700D01*
X9298700Y3488600D01*
X9306500Y3487700D01*
X9313100Y3483800D01*
X9326200Y3464300D01*
X9335400Y3455500D01*
X9348500Y3449700D01*
X9360300Y3447800D01*
Y3488600D01*
G01X9627000Y3373000D02*
X9373000D01*
Y3881000D01*
X9627000D01*
Y3373000D01*
G01X8862600Y4462700D02*
Y4541400D01*
X8887000D01*
X8894800Y4537500D01*
X8899600Y4532200D01*
X8901600Y4521700D01*
X8899600Y4511200D01*
X8893800Y4504700D01*
X8887000Y4500700D01*
X8862600D01*
G01X8887000D02*
X8901600Y4462700D01*
G01X8960800D02*
Y4541400D01*
X8949100Y4525700D01*
G01Y4462700D02*
X8972500D01*
G01X8997600Y7040800D02*
Y7752000D01*
X9251600D01*
Y7040800D01*
X8997600D01*
G01X8902000Y7510700D02*
Y7589400D01*
X8926400D01*
X8934200Y7585500D01*
X8939000Y7580200D01*
X8941000Y7569700D01*
X8939000Y7559200D01*
X8933200Y7552700D01*
X8926400Y7548700D01*
X8902000D01*
G01X8926400D02*
X8941000Y7510700D01*
G01X9000200D02*
Y7589400D01*
X8988500Y7573700D01*
G01Y7510700D02*
X9011900D01*
G01X9078900Y7589400D02*
X9071100Y7586800D01*
X9065300Y7580200D01*
X9061400Y7572300D01*
X9058500Y7561900D01*
X9057500Y7550000D01*
X9058500Y7538200D01*
X9061400Y7527800D01*
X9065300Y7519900D01*
X9071100Y7513300D01*
X9078900Y7510700D01*
X9086700Y7513300D01*
X9092500Y7519900D01*
X9096400Y7527800D01*
X9099300Y7538200D01*
X9100300Y7550000D01*
X9099300Y7561900D01*
X9096400Y7572300D01*
X9092500Y7580200D01*
X9086700Y7586800D01*
X9078900Y7589400D01*
G01X9274000Y7510700D02*
Y7589400D01*
X9298400D01*
X9306200Y7585500D01*
X9311000Y7580200D01*
X9313000Y7569700D01*
X9311000Y7559200D01*
X9305200Y7552700D01*
X9298400Y7548700D01*
X9274000D01*
G01X9298400D02*
X9313000Y7510700D01*
G01X9350800Y7526400D02*
X9356600Y7517300D01*
X9364400Y7512000D01*
X9373200Y7510700D01*
X9381000Y7512000D01*
X9388700Y7518600D01*
X9393600Y7526400D01*
X9394600Y7534300D01*
X9392600Y7543500D01*
X9385800Y7550000D01*
X9379000Y7552700D01*
X9370300D01*
G01X9379000D02*
X9384900Y7556600D01*
X9389700Y7563200D01*
X9391700Y7571000D01*
X9389700Y7578900D01*
X9384900Y7585500D01*
X9376100Y7589400D01*
X9367300Y7588100D01*
X9358600Y7582800D01*
M02*
