G04 ================== begin FILE IDENTIFICATION RECORD ==================*
G04 Layout Name:  C:/USERS/USER/DESKTOP/WORKSPACE/OSCILLATOR/allegro/OSCILLATOR.brd*
G04 Film Name:    SilkT*
G04 File Format:  Gerber RS274X*
G04 File Origin:  Cadence Allegro 17.2-P019*
G04 Origin Date:  Thu Aug 01 11:30:37 2019*
G04 *
G04 Layer:  REF DES/SILKSCREEN_TOP*
G04 Layer:  PACKAGE GEOMETRY/SILKSCREEN_TOP*
G04 Layer:  BOARD GEOMETRY/SILKSCREEN_TOP*
G04 *
G04 Offset:    (0.000 0.000)*
G04 Mirror:    No*
G04 Mode:      Positive*
G04 Rotation:  0*
G04 FullContactRelief:  No*
G04 UndefLineWidth:     0.200*
G04 ================== end FILE IDENTIFICATION RECORD ====================*
%FSLAX25Y25*MOMM*%
%IR0*IPPOS*OFA0.00000B0.00000*MIA0B0*SFA1.00000B1.00000*%
%ADD10C,.203*%
%ADD11C,.2*%
%ADD12C,.25*%
G75*
%LPD*%
G75*
G54D10*
G01X2514600Y2057400D02*
Y1485900D01*
G01D02*
X3581400D01*
G01Y1625600D02*
X2514600D01*
G01X3581400Y2057400D02*
X2514600D01*
G01Y2832100D02*
Y2260600D01*
G01D02*
X3581400D01*
G01Y2832100D02*
X2514600D01*
G01Y2692400D02*
X3581400D01*
G01Y1485900D02*
Y2057400D01*
G01Y2260600D02*
Y2832100D01*
G54D11*
G01X373000Y4127000D02*
X627000D01*
Y3365000D01*
X373000D01*
Y4127000D01*
G01X1397000Y1905000D02*
X1905000D01*
Y1651000D01*
X1397000D01*
Y1905000D01*
G01X1905000Y2413000D02*
X1397000D01*
Y2667000D01*
X1905000D01*
Y2413000D01*
G01Y3657600D02*
Y3810000D01*
X1968500Y3873500D01*
Y4000500D01*
X1905000Y4064000D01*
Y4216400D01*
X2921000D01*
Y3657600D01*
X1905000D01*
G01X3175000Y3454400D02*
Y4165600D01*
X3429000D01*
Y3454400D01*
X3175000D01*
G01X3937000Y4165600D02*
Y3454400D01*
X3683000D01*
Y4165600D01*
X3937000D01*
G01X4953000Y1905000D02*
X4445000D01*
Y2159000D01*
X4953000D01*
Y1905000D01*
G01X4445000Y2921000D02*
X4953000D01*
Y2667000D01*
X4445000D01*
Y2921000D01*
G01X4191000Y3454400D02*
Y4165600D01*
X4445000D01*
Y3454400D01*
X4191000D01*
G01X4826000Y4953000D02*
X4191000D01*
Y5461000D01*
X4826000D01*
Y4953000D01*
G01X4953000Y3429000D02*
Y3937000D01*
X5207000D01*
Y3429000D01*
X4953000D01*
G01X5270500Y4978400D02*
Y5689600D01*
X5524500D01*
Y4978400D01*
X5270500D01*
G01X5715000Y1879600D02*
Y2032000D01*
X5778500Y2095500D01*
Y2222500D01*
X5715000Y2286000D01*
Y2438400D01*
X6731000D01*
Y1879600D01*
X5715000D01*
G01X6223000Y3403600D02*
Y3556000D01*
X6286500Y3619500D01*
Y3746500D01*
X6223000Y3810000D01*
Y3962400D01*
X7239000D01*
Y3403600D01*
X6223000D01*
G01X5905500Y4724400D02*
Y5435600D01*
X6159500D01*
Y4724400D01*
X5905500D01*
G01X6731000Y4927600D02*
Y5080000D01*
X6794500Y5143500D01*
Y5270500D01*
X6731000Y5334000D01*
Y5486400D01*
X7747000D01*
Y4927600D01*
X6731000D01*
G01X7747000Y3454400D02*
Y4165600D01*
X8001000D01*
Y3454400D01*
X7747000D01*
G01X7874000Y5016500D02*
Y5524500D01*
X8128000D01*
Y5016500D01*
X7874000D01*
G01X8509000Y2641600D02*
Y1930400D01*
X8255000D01*
Y2641600D01*
X8509000D01*
G01X8255000Y3454400D02*
Y4165600D01*
X8509000D01*
Y3454400D01*
X8255000D01*
G01X9017000Y2641600D02*
Y1930400D01*
X8763000D01*
Y2641600D01*
X9017000D01*
G01X9627000Y3373000D02*
X9373000D01*
Y3881000D01*
X9627000D01*
Y3373000D01*
G01X9017000Y4165600D02*
Y3454400D01*
X8763000D01*
Y4165600D01*
X9017000D01*
G54D12*
G01X632600Y3385500D02*
X638400Y3375500D01*
X645400Y3368800D01*
X653600Y3365500D01*
X662900Y3368800D01*
X669900Y3375500D01*
X676900Y3385500D01*
X679200Y3398800D01*
Y3465500D01*
G01X741100Y3365500D02*
Y3465500D01*
X727100Y3445500D01*
G01Y3365500D02*
X755100D01*
G01X2015100Y1742700D02*
X2008100Y1747700D01*
X1999900Y1751000D01*
X1990600D01*
X1980100Y1746000D01*
X1971900Y1737700D01*
X1966100Y1727700D01*
X1961400Y1711000D01*
X1960200Y1696000D01*
X1962600Y1681000D01*
X1966100Y1671000D01*
X1973100Y1661000D01*
X1981200Y1654300D01*
X1989400Y1651000D01*
X1997600D01*
X2005700Y1654300D01*
X2012700Y1659300D01*
X2018600Y1666000D01*
G01X2048900D02*
X2055900Y1657700D01*
X2064100Y1652700D01*
X2074600Y1651000D01*
X2085100Y1654300D01*
X2093300Y1661000D01*
X2099100Y1672700D01*
X2100300Y1686000D01*
X2097900Y1699300D01*
X2092100Y1707700D01*
X2083900Y1714300D01*
X2075800Y1716000D01*
X2067600Y1714300D01*
X2057100Y1707700D01*
X2060600Y1751000D01*
X2092100D01*
G01X2015100Y2504700D02*
X2008100Y2509700D01*
X1999900Y2513000D01*
X1990600D01*
X1980100Y2508000D01*
X1971900Y2499700D01*
X1966100Y2489700D01*
X1961400Y2473000D01*
X1960200Y2458000D01*
X1962600Y2443000D01*
X1966100Y2433000D01*
X1973100Y2423000D01*
X1981200Y2416300D01*
X1989400Y2413000D01*
X1997600D01*
X2005700Y2416300D01*
X2012700Y2421300D01*
X2018600Y2428000D01*
G01X2048900Y2433000D02*
X2055900Y2421300D01*
X2065300Y2414700D01*
X2075800Y2413000D01*
X2085100Y2414700D01*
X2094400Y2423000D01*
X2100300Y2433000D01*
X2101400Y2443000D01*
X2099100Y2454700D01*
X2090900Y2463000D01*
X2082800Y2466300D01*
X2072300D01*
G01X2082800D02*
X2089800Y2471300D01*
X2095600Y2479700D01*
X2097900Y2489700D01*
X2095600Y2499700D01*
X2089800Y2508000D01*
X2079300Y2513000D01*
X2068800Y2511300D01*
X2058300Y2504700D01*
G01X2979700Y3783000D02*
Y3711300D01*
X2984400Y3696300D01*
X2993700Y3686300D01*
X3005400Y3683000D01*
X3017100Y3686300D01*
X3026400Y3696300D01*
X3031100Y3711300D01*
Y3783000D01*
G01X3068400Y3766300D02*
X3075400Y3776300D01*
X3083600Y3781300D01*
X3092900Y3783000D01*
X3104600Y3779700D01*
X3112800Y3771300D01*
X3115100Y3761300D01*
X3113900Y3751300D01*
X3109300Y3743000D01*
X3085900Y3726300D01*
X3075400Y3714700D01*
X3068400Y3698000D01*
X3066100Y3683000D01*
X3115100D01*
G01X3628800Y1624000D02*
Y1552300D01*
X3633500Y1537300D01*
X3642800Y1527300D01*
X3654500Y1524000D01*
X3666200Y1527300D01*
X3675500Y1537300D01*
X3680200Y1552300D01*
Y1624000D01*
G01X3717500Y1565700D02*
X3725700Y1577300D01*
X3732700Y1584000D01*
X3742000Y1587300D01*
X3750200Y1584000D01*
X3756000Y1577300D01*
X3760700Y1567300D01*
X3761900Y1555700D01*
X3760700Y1545700D01*
X3756000Y1535700D01*
X3749000Y1527300D01*
X3740900Y1524000D01*
X3731500Y1527300D01*
X3723400Y1537300D01*
X3718700Y1552300D01*
X3717500Y1569000D01*
X3719900Y1590700D01*
X3723400Y1602300D01*
X3729200Y1614000D01*
X3737400Y1622300D01*
X3745500Y1624000D01*
X3753700Y1620700D01*
X3759500Y1612300D01*
G01X3628800Y2386000D02*
Y2314300D01*
X3633500Y2299300D01*
X3642800Y2289300D01*
X3654500Y2286000D01*
X3666200Y2289300D01*
X3675500Y2299300D01*
X3680200Y2314300D01*
Y2386000D01*
G01X3714000Y2301000D02*
X3721000Y2292700D01*
X3729200Y2287700D01*
X3739700Y2286000D01*
X3750200Y2289300D01*
X3758400Y2296000D01*
X3764200Y2307700D01*
X3765400Y2321000D01*
X3763000Y2334300D01*
X3757200Y2342700D01*
X3749000Y2349300D01*
X3740900Y2351000D01*
X3732700Y2349300D01*
X3722200Y2342700D01*
X3725700Y2386000D01*
X3757200D01*
G01X3490100Y3492500D02*
Y3592500D01*
X3519200D01*
X3528600Y3587500D01*
X3534400Y3580800D01*
X3536700Y3567500D01*
X3534400Y3554200D01*
X3527400Y3545800D01*
X3519200Y3540800D01*
X3490100D01*
G01X3519200D02*
X3536700Y3492500D01*
G01X3576400Y3575800D02*
X3583400Y3585800D01*
X3591600Y3590800D01*
X3600900Y3592500D01*
X3612600Y3589200D01*
X3620800Y3580800D01*
X3623100Y3570800D01*
X3621900Y3560800D01*
X3617300Y3552500D01*
X3593900Y3535800D01*
X3583400Y3524200D01*
X3576400Y3507500D01*
X3574100Y3492500D01*
X3623100D01*
G01X3998100D02*
Y3592500D01*
X4027200D01*
X4036600Y3587500D01*
X4042400Y3580800D01*
X4044700Y3567500D01*
X4042400Y3554200D01*
X4035400Y3545800D01*
X4027200Y3540800D01*
X3998100D01*
G01X4027200D02*
X4044700Y3492500D01*
G01X4080900Y3507500D02*
X4087900Y3499200D01*
X4096100Y3494200D01*
X4106600Y3492500D01*
X4117100Y3495800D01*
X4125300Y3502500D01*
X4131100Y3514200D01*
X4132300Y3527500D01*
X4129900Y3540800D01*
X4124100Y3549200D01*
X4115900Y3555800D01*
X4107800Y3557500D01*
X4099600Y3555800D01*
X4089100Y3549200D01*
X4092600Y3592500D01*
X4124100D01*
G01X4506100Y3492500D02*
Y3592500D01*
X4535200D01*
X4544600Y3587500D01*
X4550400Y3580800D01*
X4552700Y3567500D01*
X4550400Y3554200D01*
X4543400Y3545800D01*
X4535200Y3540800D01*
X4506100D01*
G01X4535200D02*
X4552700Y3492500D01*
G01X4592400Y3534200D02*
X4600600Y3545800D01*
X4607600Y3552500D01*
X4616900Y3555800D01*
X4625100Y3552500D01*
X4630900Y3545800D01*
X4635600Y3535800D01*
X4636800Y3524200D01*
X4635600Y3514200D01*
X4630900Y3504200D01*
X4623900Y3495800D01*
X4615800Y3492500D01*
X4606400Y3495800D01*
X4598300Y3505800D01*
X4593600Y3520800D01*
X4592400Y3537500D01*
X4594800Y3559200D01*
X4598300Y3570800D01*
X4604100Y3582500D01*
X4612300Y3590800D01*
X4620400Y3592500D01*
X4628600Y3589200D01*
X4634400Y3580800D01*
G01X4902100Y5116500D02*
X4931300Y5016500D01*
X4960500Y5116500D01*
G01X4993200Y5016500D02*
Y5116500D01*
X5022300D01*
X5031700Y5111500D01*
X5037500Y5104800D01*
X5039800Y5091500D01*
X5037500Y5078200D01*
X5030500Y5069800D01*
X5022300Y5064800D01*
X4993200D01*
G01X5022300D02*
X5039800Y5016500D01*
G01X5101700D02*
Y5116500D01*
X5087700Y5096500D01*
G01Y5016500D02*
X5115700D01*
G01X5063100Y1996700D02*
X5056100Y2001700D01*
X5047900Y2005000D01*
X5038600D01*
X5028100Y2000000D01*
X5019900Y1991700D01*
X5014100Y1981700D01*
X5009400Y1965000D01*
X5008200Y1950000D01*
X5010600Y1935000D01*
X5014100Y1925000D01*
X5021100Y1915000D01*
X5029200Y1908300D01*
X5037400Y1905000D01*
X5045600D01*
X5053700Y1908300D01*
X5060700Y1913300D01*
X5066600Y1920000D01*
G01X5100400Y1946700D02*
X5108600Y1958300D01*
X5115600Y1965000D01*
X5124900Y1968300D01*
X5133100Y1965000D01*
X5138900Y1958300D01*
X5143600Y1948300D01*
X5144800Y1936700D01*
X5143600Y1926700D01*
X5138900Y1916700D01*
X5131900Y1908300D01*
X5123800Y1905000D01*
X5114400Y1908300D01*
X5106300Y1918300D01*
X5101600Y1933300D01*
X5100400Y1950000D01*
X5102800Y1971700D01*
X5106300Y1983300D01*
X5112100Y1995000D01*
X5120300Y2003300D01*
X5128400Y2005000D01*
X5136600Y2001700D01*
X5142400Y1993300D01*
G01X5063100Y2758700D02*
X5056100Y2763700D01*
X5047900Y2767000D01*
X5038600D01*
X5028100Y2762000D01*
X5019900Y2753700D01*
X5014100Y2743700D01*
X5009400Y2727000D01*
X5008200Y2712000D01*
X5010600Y2697000D01*
X5014100Y2687000D01*
X5021100Y2677000D01*
X5029200Y2670300D01*
X5037400Y2667000D01*
X5045600D01*
X5053700Y2670300D01*
X5060700Y2675300D01*
X5066600Y2682000D01*
G01X5136600Y2667000D02*
Y2767000D01*
X5093400Y2695300D01*
X5151800D01*
G01X5317100Y3584200D02*
X5310100Y3589200D01*
X5301900Y3592500D01*
X5292600D01*
X5282100Y3587500D01*
X5273900Y3579200D01*
X5268100Y3569200D01*
X5263400Y3552500D01*
X5262200Y3537500D01*
X5264600Y3522500D01*
X5268100Y3512500D01*
X5275100Y3502500D01*
X5283200Y3495800D01*
X5291400Y3492500D01*
X5299600D01*
X5307700Y3495800D01*
X5314700Y3500800D01*
X5320600Y3507500D01*
G01X5376600Y3492500D02*
Y3592500D01*
X5362600Y3572500D01*
G01Y3492500D02*
X5390600D01*
G01X5585600Y5016500D02*
Y5116500D01*
X5614700D01*
X5624100Y5111500D01*
X5629900Y5104800D01*
X5632200Y5091500D01*
X5629900Y5078200D01*
X5622900Y5069800D01*
X5614700Y5064800D01*
X5585600D01*
G01X5614700D02*
X5632200Y5016500D01*
G01X5694100D02*
X5702300Y5018200D01*
X5711600Y5023200D01*
X5717400Y5031500D01*
X5719800Y5043200D01*
X5717400Y5054800D01*
X5710400Y5064800D01*
X5699900Y5069800D01*
X5688300D01*
X5681300Y5073200D01*
X5675400Y5081500D01*
X5673100Y5093200D01*
X5676600Y5104800D01*
X5684800Y5113200D01*
X5694100Y5116500D01*
X5703400Y5113200D01*
X5711600Y5104800D01*
X5715100Y5093200D01*
X5712800Y5081500D01*
X5706900Y5073200D01*
X5699900Y5069800D01*
X5688300D01*
X5677800Y5064800D01*
X5670800Y5054800D01*
X5668400Y5043200D01*
X5670800Y5031500D01*
X5676600Y5023200D01*
X5685900Y5018200D01*
X5694100Y5016500D01*
G01X6220600Y4762500D02*
Y4862500D01*
X6249700D01*
X6259100Y4857500D01*
X6264900Y4850800D01*
X6267200Y4837500D01*
X6264900Y4824200D01*
X6257900Y4815800D01*
X6249700Y4810800D01*
X6220600D01*
G01X6249700D02*
X6267200Y4762500D01*
G01X6329100D02*
Y4862500D01*
X6315100Y4842500D01*
G01Y4762500D02*
X6343100D01*
G01X6853200Y2005000D02*
Y1933300D01*
X6857900Y1918300D01*
X6867200Y1908300D01*
X6878900Y1905000D01*
X6890600Y1908300D01*
X6899900Y1918300D01*
X6904600Y1933300D01*
Y2005000D01*
G01X6978100Y1905000D02*
Y2005000D01*
X6934900Y1933300D01*
X6993300D01*
G01X7297700Y3529000D02*
Y3457300D01*
X7302400Y3442300D01*
X7311700Y3432300D01*
X7323400Y3429000D01*
X7335100Y3432300D01*
X7344400Y3442300D01*
X7349100Y3457300D01*
Y3529000D01*
G01X7382900Y3449000D02*
X7389900Y3437300D01*
X7399300Y3430700D01*
X7409800Y3429000D01*
X7419100Y3430700D01*
X7428400Y3439000D01*
X7434300Y3449000D01*
X7435400Y3459000D01*
X7433100Y3470700D01*
X7424900Y3479000D01*
X7416800Y3482300D01*
X7406300D01*
G01X7416800D02*
X7423800Y3487300D01*
X7429600Y3495700D01*
X7431900Y3505700D01*
X7429600Y3515700D01*
X7423800Y3524000D01*
X7413300Y3529000D01*
X7402800Y3527300D01*
X7392300Y3520700D01*
G01X7615200Y4862500D02*
Y4790800D01*
X7619900Y4775800D01*
X7629200Y4765800D01*
X7640900Y4762500D01*
X7652600Y4765800D01*
X7661900Y4775800D01*
X7666600Y4790800D01*
Y4862500D01*
G01X7726100Y4762500D02*
Y4862500D01*
X7712100Y4842500D01*
G01Y4762500D02*
X7740100D01*
G01X8570100Y1968500D02*
Y2068500D01*
X8599200D01*
X8608600Y2063500D01*
X8614400Y2056800D01*
X8616700Y2043500D01*
X8614400Y2030200D01*
X8607400Y2021800D01*
X8599200Y2016800D01*
X8570100D01*
G01X8599200D02*
X8616700Y1968500D01*
G01X8652900Y1988500D02*
X8659900Y1976800D01*
X8669300Y1970200D01*
X8679800Y1968500D01*
X8689100Y1970200D01*
X8698400Y1978500D01*
X8704300Y1988500D01*
X8705400Y1998500D01*
X8703100Y2010200D01*
X8694900Y2018500D01*
X8686800Y2021800D01*
X8676300D01*
G01X8686800D02*
X8693800Y2026800D01*
X8699600Y2035200D01*
X8701900Y2045200D01*
X8699600Y2055200D01*
X8693800Y2063500D01*
X8683300Y2068500D01*
X8672800Y2066800D01*
X8662300Y2060200D01*
G01X8527500Y3492500D02*
Y3592500D01*
X8556600D01*
X8566000Y3587500D01*
X8571800Y3580800D01*
X8574100Y3567500D01*
X8571800Y3554200D01*
X8564800Y3545800D01*
X8556600Y3540800D01*
X8527500D01*
G01X8556600D02*
X8574100Y3492500D01*
G01X8636000D02*
Y3592500D01*
X8622000Y3572500D01*
G01Y3492500D02*
X8650000D01*
G01X8721200Y3592500D02*
X8711900Y3589200D01*
X8704900Y3580800D01*
X8700200Y3570800D01*
X8696700Y3557500D01*
X8695500Y3542500D01*
X8696700Y3527500D01*
X8700200Y3514200D01*
X8704900Y3504200D01*
X8711900Y3495800D01*
X8721200Y3492500D01*
X8730500Y3495800D01*
X8737500Y3504200D01*
X8742200Y3514200D01*
X8745700Y3527500D01*
X8746900Y3542500D01*
X8745700Y3557500D01*
X8742200Y3570800D01*
X8737500Y3580800D01*
X8730500Y3589200D01*
X8721200Y3592500D01*
G01X8062100Y3492500D02*
Y3592500D01*
X8091200D01*
X8100600Y3587500D01*
X8106400Y3580800D01*
X8108700Y3567500D01*
X8106400Y3554200D01*
X8099400Y3545800D01*
X8091200Y3540800D01*
X8062100D01*
G01X8091200D02*
X8108700Y3492500D01*
G01X8150800Y3504200D02*
X8158900Y3495800D01*
X8168300Y3492500D01*
X8177600Y3495800D01*
X8185800Y3505800D01*
X8191600Y3520800D01*
X8193900Y3535800D01*
Y3554200D01*
X8191600Y3569200D01*
X8185800Y3582500D01*
X8178800Y3589200D01*
X8170600Y3592500D01*
X8161300Y3589200D01*
X8154300Y3582500D01*
X8149600Y3572500D01*
X8147300Y3559200D01*
X8149600Y3547500D01*
X8155400Y3535800D01*
X8162400Y3529200D01*
X8170600Y3527500D01*
X8179900Y3530800D01*
X8186900Y3539200D01*
X8193900Y3554200D01*
G01X8238100Y5171700D02*
X8231100Y5176700D01*
X8222900Y5180000D01*
X8213600D01*
X8203100Y5175000D01*
X8194900Y5166700D01*
X8189100Y5156700D01*
X8184400Y5140000D01*
X8183200Y5125000D01*
X8185600Y5110000D01*
X8189100Y5100000D01*
X8196100Y5090000D01*
X8204200Y5083300D01*
X8212400Y5080000D01*
X8220600D01*
X8228700Y5083300D01*
X8235700Y5088300D01*
X8241600Y5095000D01*
G01X8275400Y5163300D02*
X8282400Y5173300D01*
X8290600Y5178300D01*
X8299900Y5180000D01*
X8311600Y5176700D01*
X8319800Y5168300D01*
X8322100Y5158300D01*
X8320900Y5148300D01*
X8316300Y5140000D01*
X8292900Y5123300D01*
X8282400Y5111700D01*
X8275400Y5095000D01*
X8273100Y5080000D01*
X8322100D01*
G01X9078100Y1968500D02*
Y2068500D01*
X9107200D01*
X9116600Y2063500D01*
X9122400Y2056800D01*
X9124700Y2043500D01*
X9122400Y2030200D01*
X9115400Y2021800D01*
X9107200Y2016800D01*
X9078100D01*
G01X9107200D02*
X9124700Y1968500D01*
G01X9200600D02*
Y2068500D01*
X9157400Y1996800D01*
X9215800D01*
G01X9459100Y3258500D02*
X9464900Y3248500D01*
X9471900Y3241800D01*
X9480100Y3238500D01*
X9489400Y3241800D01*
X9496400Y3248500D01*
X9503400Y3258500D01*
X9505700Y3271800D01*
Y3338500D01*
G01X9545400Y3321800D02*
X9552400Y3331800D01*
X9560600Y3336800D01*
X9569900Y3338500D01*
X9581600Y3335200D01*
X9589800Y3326800D01*
X9592100Y3316800D01*
X9590900Y3306800D01*
X9586300Y3298500D01*
X9562900Y3281800D01*
X9552400Y3270200D01*
X9545400Y3253500D01*
X9543100Y3238500D01*
X9592100D01*
G01X9078100Y3492500D02*
Y3592500D01*
X9107200D01*
X9116600Y3587500D01*
X9122400Y3580800D01*
X9124700Y3567500D01*
X9122400Y3554200D01*
X9115400Y3545800D01*
X9107200Y3540800D01*
X9078100D01*
G01X9107200D02*
X9124700Y3492500D01*
G01X9184300D02*
X9186600Y3514200D01*
X9190100Y3532500D01*
X9194800Y3549200D01*
X9200600Y3567500D01*
X9209900Y3592500D01*
X9163300D01*
M02*
