G04 ================== begin FILE IDENTIFICATION RECORD ==================*
G04 Layout Name:  C:/USERS/USER/DESKTOP/WORKSPACE/OSCILLATOR/allegro/OSCILLATOR.brd*
G04 Film Name:    TOP*
G04 File Format:  Gerber RS274X*
G04 File Origin:  Cadence Allegro 17.2-P019*
G04 Origin Date:  Thu Aug 01 11:30:37 2019*
G04 *
G04 Layer:  ETCH/TOP*
G04 Layer:  PIN/TOP*
G04 Layer:  VIA CLASS/TOP*
G04 *
G04 Offset:    (0.000 0.000)*
G04 Mirror:    No*
G04 Mode:      Positive*
G04 Rotation:  0*
G04 FullContactRelief:  No*
G04 UndefLineWidth:     0.000*
G04 ================== end FILE IDENTIFICATION RECORD ====================*
%FSLAX25Y25*MOMM*%
%IR0*IPPOS*OFA0.00000B0.00000*MIA0B0*SFA1.00000B1.00000*%
%ADD11C,1.524*%
%ADD12C,1.651*%
%ADD15C,1.905*%
%ADD13R,1.524X1.524*%
%ADD14R,1.905X1.905*%
%ADD10C,.635*%
%ADD16C,1.*%
%ADD17C,.5*%
%ADD19C,2.036*%
%ADD18C,2.164*%
%ADD20C,2.418*%
G75*
%LPD*%
G75*
G36*
G01X754200Y500000D02*
Y754200D01*
X500000D01*
Y3390200D01*
G03Y3593800I0J101800D01*
G01Y3644200D01*
G03Y3847800I0J101800D01*
G01Y3898200D01*
G03Y4101800I0J101800D01*
G01Y6245800D01*
X754200D01*
Y6500000D01*
X9245800D01*
Y6245800D01*
X9500000D01*
Y3855800D01*
G03Y3652200I0J-101800D01*
G01Y3601800D01*
G03Y3398200I0J-101800D01*
G01Y754200D01*
X9245800D01*
Y500000D01*
X754200D01*
G37*
%LPC*%
G75*
G36*
G01X6756200Y4749800D02*
Y4902200D01*
G02X6781800Y4927800I25600J0D01*
G01X6934200D01*
G02X6959800Y4902200I0J-25600D01*
G01Y4749800D01*
G02X6934200Y4724200I-25600J0D01*
G01X6781800D01*
G02X6756200Y4749800I0J25600D01*
G37*
G36*
G01X5740200Y1701800D02*
Y1854200D01*
G02X5765800Y1879800I25600J0D01*
G01X5918200D01*
G02X5943800Y1854200I0J-25600D01*
G01Y1701800D01*
G02X5918200Y1676200I-25600J0D01*
G01X5765800D01*
G02X5740200Y1701800I0J25600D01*
G37*
G36*
G01X3181200Y1682800D02*
Y1873200D01*
G02X3206800Y1898800I25550J50D01*
G01X3397200D01*
G02X3422800Y1873200I50J-25550D01*
G01Y1682800D01*
G02X3397200Y1657200I-25550J-50D01*
G01X3206800D01*
G02X3181200Y1682800I-50J25550D01*
G37*
G36*
G01X1930200Y3479800D02*
Y3632200D01*
G02X1955800Y3657800I25600J0D01*
G01X2108200D01*
G02X2133800Y3632200I0J-25600D01*
G01Y3479800D01*
G02X2108200Y3454200I-25600J0D01*
G01X1955800D01*
G02X1930200Y3479800I0J25600D01*
G37*
G36*
G01X4559100Y5305000D02*
Y5168300D01*
G02X4457900I-50600J-88300D01*
G01Y5263000D01*
X4437500Y5283400D01*
X4342800D01*
G02X4203900Y5422300I-88300J50600D01*
G01Y5482000D01*
X4360500Y5638600D01*
X5936900D01*
G02X5981900Y5683600I95600J-50600D01*
G01Y5749500D01*
X6061500Y5829100D01*
X7337000D01*
X7416600Y5749500D01*
Y5676300D01*
G02X7315400I-50600J-88300D01*
G01Y5707500D01*
X7295000Y5727900D01*
X6103500D01*
X6083100Y5707500D01*
Y5683600D01*
G02X5936900Y5537400I-50600J-95600D01*
G01X4402500D01*
X4305100Y5440000D01*
Y5422300D01*
G02X4342800Y5384600I-50600J-88300D01*
G01X4479500D01*
X4559100Y5305000D01*
G37*
G36*
G01X5448100Y4965900D02*
Y4921600D01*
G02X5346900I-50600J-95600D01*
G01Y5185900D01*
X5249400Y5283400D01*
X4850800D01*
G02Y5384600I-88300J50600D01*
G01X5291400D01*
X5448100Y5227900D01*
Y5067100D01*
X7069500D01*
X7162600Y4974000D01*
Y4914300D01*
G02X7061400I-50600J-88300D01*
G01Y4932000D01*
X7027500Y4965900D01*
X5448100D01*
G37*
G36*
G01X7260000Y4521400D02*
X6128100D01*
G02Y4622600I-95600J50600D01*
G01X7218000D01*
X7315400Y4720000D01*
Y4737700D01*
G02Y4914300I50600J88300D01*
G01Y5037500D01*
X7472000Y5194100D01*
X7905400D01*
G02Y5092900I95600J-50600D01*
G01X7514000D01*
X7416600Y4995500D01*
Y4914300D01*
G02Y4737700I-50600J-88300D01*
G01Y4678000D01*
X7260000Y4521400D01*
G37*
G36*
G01X6908600Y4170000D02*
Y4152300D01*
G02X6807400I-50600J-88300D01*
G01Y4212000D01*
X6964000Y4368600D01*
X7778400D01*
G02X7823400Y4413600I95600J-50600D01*
G01Y4472000D01*
X7910500Y4559100D01*
X8853500D01*
X8940600Y4472000D01*
Y4413600D01*
G02X8839400I-50600J-95600D01*
G01Y4430000D01*
X8811500Y4457900D01*
X7952500D01*
X7924600Y4430000D01*
Y4413600D01*
G02X7778400Y4267400I-50600J-95600D01*
G01X7006000D01*
X6908600Y4170000D01*
G37*
G36*
G01X2398000Y3118400D02*
X2235400Y3281000D01*
Y3467700D01*
G02X2336600I50600J88300D01*
G01Y3323000D01*
X2440000Y3219600D01*
X3208200D01*
G03X3216200Y3236000I-60J10181D01*
G02X3206400Y3251400I86064J65586D01*
G01X2646000D01*
X2489400Y3408000D01*
Y3467700D01*
G02X2590600I50600J88300D01*
G01Y3450000D01*
X2688000Y3352600D01*
X3206400D01*
G02X3397600I95600J-50600D01*
G01X3714400D01*
G02X3895800Y3236000I95621J-50645D01*
G03X3903800Y3219600I8060J-6219D01*
G01X3973600D01*
X4106600Y3352600D01*
X4222400D01*
G02Y3251400I95600J-50600D01*
G01X4148600D01*
X4015600Y3118400D01*
X2398000D01*
G37*
G36*
G01X7027500Y2743400D02*
X6807400Y2963500D01*
Y3124400D01*
X5440000D01*
X5283400Y3281000D01*
Y3725500D01*
X5249500Y3759400D01*
X5175600D01*
G02X4984400I-95600J50600D01*
G01X4868400D01*
X4614400Y4013400D01*
X2646000D01*
X2489400Y4170000D01*
Y4229700D01*
G02X2590600I50600J88300D01*
G01Y4212000D01*
X2688000Y4114600D01*
X3154000D01*
X3251400Y4212000D01*
Y4222300D01*
X3248800Y4223800D01*
G02X3352600Y4222400I53180J94210D01*
G01Y4170000D01*
X3314600Y4132000D01*
G03X3321800Y4114600I7194J-7213D01*
G01X4656400D01*
X4910400Y3860600D01*
X4984400D01*
G02X5175600I95600J-50600D01*
G01X5291500D01*
X5384600Y3767500D01*
Y3323000D01*
X5482000Y3225600D01*
X6248200D01*
Y3378200D01*
G02X6273800Y3403800I25600J0D01*
G01X6426200D01*
G02X6451800Y3378200I0J-25600D01*
G01Y3225600D01*
X6513700D01*
G03X6521900Y3241800I-39J10195D01*
G02X6553400Y3390300I82101J60176D01*
G01Y3450000D01*
X6646500Y3543100D01*
X7837500D01*
X7924600Y3456000D01*
Y3397600D01*
G02X7969600Y3352600I-50600J-95600D01*
G01X8286400D01*
G02Y3251400I95600J-50600D01*
G01X7969600D01*
G02X7823400Y3397600I-95600J50600D01*
G01Y3414000D01*
X7795500Y3441900D01*
X6688500D01*
X6654600Y3408000D01*
Y3390300D01*
G02X6686100Y3241800I-50601J-88324D01*
G03X6694300Y3225600I8239J-6005D01*
G01X6767700D01*
G03X6775900Y3241800I-39J10195D01*
G02X6908600Y3213700I82075J60211D01*
G01Y3005500D01*
X7069500Y2844600D01*
X8286400D01*
G02Y2743400I95600J-50600D01*
G01X7027500D01*
G37*
G36*
G01X2914800Y2444800D02*
G02X2889200Y2419200I-25550J-50D01*
G01X2698800D01*
G02X2673200Y2444800I-50J25550D01*
G01Y2489400D01*
X1873600D01*
G02Y2590600I-95600J50600D01*
G01X2673200D01*
Y2635200D01*
G02X2698800Y2660800I25550J50D01*
G01X2889200D01*
G02X2914800Y2635200I50J-25550D01*
G01Y2444800D01*
G37*
G36*
G01X6171600Y2418200D02*
X6027300Y2273900D01*
X4667700D01*
X4496400Y2445200D01*
Y2716600D01*
G02X4494600Y2718400I75600J77400D01*
G01X3179300D01*
X3123600Y2662700D01*
Y2634400D01*
X3125400Y2632800D01*
G02X2972400Y2634300I-77417J-92820D01*
G01Y2725300D01*
X3116700Y2869600D01*
X4494600D01*
G02X4647600Y2716600I77400J-75600D01*
G01Y2507800D01*
X4730300Y2425100D01*
X5964700D01*
X6016300Y2476700D01*
G02X6171600Y2471800I79725J63300D01*
G01Y2418200D01*
G37*
G36*
G01X6498000Y2044900D02*
X6400600Y1947500D01*
Y1866300D01*
G02X6299400I-50600J-88300D01*
G01Y1989500D01*
X6437200Y2127200D01*
X6299400Y2265000D01*
Y2451700D01*
G02X6400600I50600J88300D01*
G01Y2307000D01*
X6486100Y2221500D01*
X8772100D01*
X8940600Y2053000D01*
Y1873600D01*
G02X8839400I-50600J-95600D01*
G01Y2011000D01*
X8730100Y2120300D01*
X8326400D01*
G03X8319200Y2102900I-6J-10187D01*
G01X8432600Y1989500D01*
Y1873600D01*
G02X8331400I-50600J-95600D01*
G01Y1947500D01*
X8234000Y2044900D01*
X6498000D01*
G37*
G36*
G01X1873600Y1828600D02*
X2684200D01*
G02Y1727400I109800J-50600D01*
G01X1873600D01*
G02Y1828600I-95600J50600D01*
G37*
G36*
G01X4647600Y1682300D02*
X4730300Y1599600D01*
X6472700D01*
X6528400Y1655300D01*
Y1709800D01*
G02X6679600I75600J68200D01*
G01Y1592700D01*
X6535300Y1448400D01*
X4667700D01*
X4496400Y1619700D01*
Y1954600D01*
G02X4494600Y1956400I75600J77400D01*
G01X3162500D01*
X3123600Y1917500D01*
Y1872300D01*
G02X2972400I-75600J-94300D01*
G01Y1980100D01*
X3099900Y2107600D01*
X4494600D01*
G02X4647600Y1954600I77400J-75600D01*
G01Y1682300D01*
G37*
G54D19*
X2286000Y4318000D03*
X2032000D03*
X2794000Y3556000D03*
Y4318000D03*
X6096000Y1778000D03*
X5842000Y2540000D03*
X6350000Y4064000D03*
X6604000Y2540000D03*
X7112000Y3302000D03*
X6604000Y4064000D03*
X7112000D03*
Y5588000D03*
X6858000D03*
X7620000Y4826000D03*
Y5588000D03*
G54D18*
X1524000Y1778000D03*
Y2540000D03*
X3810000Y4318000D03*
X4826000Y2032000D03*
Y2794000D03*
X4318000Y4318000D03*
X5080000Y3556000D03*
X5397500Y5842000D03*
X8001000Y5397500D03*
X8382000Y4318000D03*
X8890000Y3302000D03*
Y2794000D03*
G54D20*
X3302000Y2540000D03*
%LPD*%
G75*
G54D10*
X500000Y500000D03*
Y6500000D03*
X9500000Y500000D03*
Y6500000D03*
G54D11*
X500000Y3492000D03*
Y3746000D03*
Y4000000D03*
X2540000Y3556000D03*
X2286000D03*
X2540000Y4318000D03*
X2286000D03*
X2032000D03*
X2794000Y3556000D03*
Y4318000D03*
X4254500Y5334000D03*
X4762500D03*
X4508500Y5080000D03*
X6350000Y1778000D03*
X6096000D03*
X6350000Y2540000D03*
X6096000D03*
X5842000D03*
X6350000Y4064000D03*
X6604000Y1778000D03*
Y2540000D03*
X7112000Y3302000D03*
X6858000D03*
X6604000D03*
X7112000Y4064000D03*
X6858000D03*
X6604000D03*
X7112000Y4826000D03*
Y5588000D03*
X6858000D03*
X7620000Y4826000D03*
X7366000D03*
X7620000Y5588000D03*
X7366000D03*
X9500000Y3754000D03*
Y3500000D03*
G54D12*
X1778000Y1778000D03*
X1524000D03*
Y2540000D03*
X1778000D03*
X3302000Y3302000D03*
Y4318000D03*
X3810000Y3302000D03*
Y4318000D03*
X4572000Y2032000D03*
X4826000D03*
X4318000Y3302000D03*
X4826000Y2794000D03*
X4572000D03*
X4318000Y4318000D03*
X5080000Y3810000D03*
Y3556000D03*
X5397500Y4826000D03*
Y5842000D03*
X6032500Y4572000D03*
Y5588000D03*
X7874000Y3302000D03*
Y4318000D03*
X8001000Y5397500D03*
Y5143500D03*
X8382000Y1778000D03*
Y3302000D03*
Y2794000D03*
Y4318000D03*
X8890000Y1778000D03*
Y2794000D03*
Y3302000D03*
Y4318000D03*
G54D13*
X2032000Y3556000D03*
X5842000Y1778000D03*
X6350000Y3302000D03*
X6858000Y4826000D03*
G54D14*
X3302000Y1778000D03*
X2794000Y2540000D03*
G54D15*
X3048000Y1778000D03*
X2794000D03*
X3048000Y2540000D03*
X3302000D03*
G54D16*
G01X4572000Y2032000D02*
X3131200D01*
X3048000Y1948800D01*
Y1778000D01*
G01Y2540000D02*
Y2694000D01*
X3148000Y2794000D01*
X4572000D01*
G01X6604000Y1778000D02*
Y1624000D01*
X6504000Y1524000D01*
X4699000D01*
X4572000Y1651000D01*
Y2032000D01*
G01X6096000Y2540000D02*
Y2449500D01*
X5996000Y2349500D01*
X4699000D01*
X4572000Y2476500D01*
Y2794000D01*
G01X4318000Y4204700D02*
Y4318000D01*
G01D02*
Y4431300D01*
G01X4204700Y4318000D02*
X4318000D01*
G01D02*
X4431300D01*
G01X5397500Y5728700D02*
Y5842000D01*
G01D02*
Y5955300D01*
G01X5284200Y5842000D02*
X5397500D01*
G01D02*
X5510800D01*
G01X6096000Y1671100D02*
Y1778000D01*
G01D02*
Y1884900D01*
G01X8001000Y5397500D02*
Y5510800D01*
G01X7887700Y5397500D02*
X8001000D01*
G01D02*
X8114300D01*
G01X8382000Y4204700D02*
Y4318000D01*
G01X8268700D02*
X8382000D01*
G01D02*
X8495300D01*
G01X9500000Y3754000D02*
Y3860900D01*
G01X9393100Y3754000D02*
X9500000D01*
G54D17*
G01X1778000Y1778000D02*
X2794000D01*
G01X1778000Y2540000D02*
X2794000D01*
G01X3302000Y3302000D02*
X2667000D01*
X2540000Y3429000D01*
Y3556000D01*
G01X4318000Y3302000D02*
X4127600D01*
X3994600Y3169000D01*
X2419000D01*
X2286000Y3302000D01*
Y3556000D01*
G01X3175000Y4064000D02*
X2667000D01*
X2540000Y4191000D01*
Y4318000D01*
G01X3302000Y3302000D02*
X3810000D01*
G01X3302000Y4318000D02*
Y4191000D01*
X3175000Y4064000D01*
G01D02*
X4635400D01*
X4889400Y3810000D01*
X5080000D01*
G01X4508500Y5080000D02*
Y5284000D01*
X4458500Y5334000D01*
X4254500D01*
G01X6032500Y5588000D02*
X4381500D01*
X4254500Y5461000D01*
Y5334000D01*
G01X4762500D02*
X5270400D01*
X5397500Y5206900D01*
Y5016500D01*
G01X6858000Y3175000D02*
X5461000D01*
X5334000Y3302000D01*
Y3746500D01*
X5270500Y3810000D01*
X5080000D01*
G01X5397500Y5016500D02*
Y4826000D01*
G01X7112000D02*
Y4953000D01*
X7048500Y5016500D01*
X5397500D01*
G01X6350000Y1778000D02*
Y1968500D01*
X6477000Y2095500D01*
X8255000D01*
X8382000Y1968500D01*
Y1778000D01*
G01X8890000D02*
Y2032000D01*
X8751100Y2170900D01*
X6465100D01*
X6350000Y2286000D01*
Y2540000D01*
G01X7366000Y4826000D02*
Y4699000D01*
X7239000Y4572000D01*
X6032500D01*
G01X7366000Y5588000D02*
Y5728500D01*
X7316000Y5778500D01*
X6082500D01*
X6032500Y5728500D01*
Y5588000D01*
G01X7874000Y3302000D02*
Y3435000D01*
X7816500Y3492500D01*
X6667500D01*
X6604000Y3429000D01*
Y3302000D01*
G01X8382000Y2794000D02*
X7048500D01*
X6858000Y2984500D01*
Y3175000D01*
G01D02*
Y3302000D01*
G01X7874000Y4318000D02*
X6985000D01*
X6858000Y4191000D01*
Y4064000D01*
G01X7874000Y3302000D02*
X8382000D01*
G01X8001000Y5143500D02*
X7493000D01*
X7366000Y5016500D01*
Y4826000D01*
G01X7874000Y4318000D02*
Y4451000D01*
X7931500Y4508500D01*
X8832500D01*
X8890000Y4451000D01*
Y4318000D01*
M02*
